Coordinates
version=1
nRows=11
nColumns=40
inDegrees=yes

Units are S.I. units (second, meters, Newtons, ...)
Angles are in degrees.

endheader
time	pelvis_tilt	pelvis_list	pelvis_rotation	pelvis_tx	pelvis_ty	pelvis_tz	hip_flexion_r	hip_adduction_r	hip_rotation_r	knee_angle_r	knee_angle_r_beta	ankle_angle_r	subtalar_angle_r	mtp_angle_r	hip_flexion_l	hip_adduction_l	hip_rotation_l	knee_angle_l	knee_angle_l_beta	ankle_angle_l	subtalar_angle_l	mtp_angle_l	lumbar_extension	lumbar_bending	lumbar_rotation	arm_flex_r	arm_add_r	arm_rot_r	elbow_flex_r	pro_sup_r	wrist_flex_r	wrist_dev_r	arm_flex_l	arm_add_l	arm_rot_l	elbow_flex_l	pro_sup_l	wrist_flex_l	wrist_dev_l
      9.40864286	     -6.04356303	     -2.01865751	     -4.80623376	      0.74930354	      0.92138194	      0.44060068	     28.29413809	     -2.08241876	    -13.93936117	     12.11609469	     12.11609469	      1.77383286	      5.85383249	      7.33186713	      2.57569426	     -1.24206064	    -13.14819246	     11.80505493	     11.80505493	     16.43564481	     -4.04952313	     -6.60061627	     -9.28563134	      4.43901746	      0.65491639	    -13.76349104	    -12.05386007	     -5.10988207	     29.23516201	     46.48457442	      0.00000000	      0.00000000	     21.84097926	    -21.57656967	    -13.91637373	     77.37828528	     47.64748811	      0.00000000	      0.00000000
      9.42228571	     -5.86557137	     -1.90402026	     -4.78490938	      0.75071634	      0.92043247	      0.44244386	     27.65313986	     -2.04512126	    -14.41374369	     11.62389880	     11.62389880	      1.35722781	      6.53121793	      7.17542660	      1.54563907	     -1.15687797	    -13.35336140	     11.33711496	     11.33711496	     16.80503966	     -3.36342801	     -6.80696308	     -9.23680464	      4.28241184	      0.68492109	    -13.43513675	    -11.86066296	     -5.16829979	     29.18797996	     46.48707879	      0.00000000	      0.00000000	     21.76976597	    -21.15197690	    -13.85819127	     76.79822531	     47.64120492	      0.00000000	      0.00000000
      9.43592857	     -5.85188377	     -1.91659939	     -4.72482100	      0.75204429	      0.91920438	      0.44441870	     27.48010301	     -1.94465112	    -14.56710782	     12.01538696	     12.01538696	      1.10775859	      6.29093554	      6.97448719	      0.92551993	     -1.26347546	    -13.26998432	     11.31198409	     11.31198409	     17.20022194	     -3.29802151	     -6.90868667	     -9.01069746	      4.31737561	      0.71531692	    -13.07495291	    -11.75677996	     -5.16154805	     29.29676142	     46.48378149	      0.00000000	      0.00000000	     21.44384297	    -20.76496173	    -13.73646791	     76.56465152	     47.62792170	      0.00000000	      0.00000000
      9.44957143	     -5.74365801	     -1.86963345	     -4.67348157	      0.75365255	      0.91805463	      0.44659175	     27.27728576	     -1.84833254	    -14.05463046	     12.66437786	     12.66437786	     -0.31387206	      4.78764924	      2.80374803	      0.14210911	     -1.33919950	    -13.51143619	     11.24806504	     11.24806504	     17.96808426	     -2.51793133	     -6.27327244	     -8.80054791	      4.30042494	      0.70789755	    -12.57599069	    -11.72246030	     -5.17928276	     29.12406359	     46.47939369	      0.00000000	      0.00000000	     21.40646274	    -20.31842539	    -14.13031441	     75.16479955	     47.64799456	      0.00000000	      0.00000000
      9.46321429	     -5.61402776	     -1.89504617	     -4.54993282	      0.75534534	      0.91710316	      0.44884133	     27.05429544	     -1.74817066	    -13.68403558	     13.52715360	     13.52715360	     -1.43859580	      3.29953631	     -0.93903929	     -0.55333668	     -1.52593719	    -13.57676855	     11.40858114	     11.40858114	     18.79973358	     -1.97289484	     -5.42401784	     -8.70239314	      4.33857350	      0.64629808	    -12.02949620	    -11.68721166	     -5.21647882	     29.44750820	     46.44564769	      0.00000000	      0.00000000	     20.84368371	    -19.99146262	    -14.09355305	     74.71075217	     47.65720533	      0.00000000	      0.00000000
      9.47685714	     -5.56350632	     -2.09708311	     -4.38559658	      0.75695318	      0.91646570	      0.45113032	     26.80083936	     -1.53786146	    -13.78519744	     14.37898640	     14.37898640	     -1.37255993	      2.82002489	     -1.16883009	     -1.19579530	     -1.88577006	    -13.38372925	     11.44484051	     11.44484051	     19.12181883	     -1.95598817	     -5.46553123	     -8.56905447	      4.56772008	      0.78069887	    -11.39593550	    -11.62278213	     -5.20732843	     29.69594572	     46.43910255	      0.00000000	      0.00000000	     20.14612893	    -19.41381789	    -13.89346734	     74.35931495	     47.63285774	      0.00000000	      0.00000000
      9.49050000	     -5.43149894	     -2.09463555	     -4.20134383	      0.75859005	      0.91577025	      0.45355832	     27.03612620	     -1.47544361	    -12.59545871	     16.23639113	     16.23639113	     -1.54597971	     -0.00429545	     -3.42415157	     -1.72417158	     -2.13808747	    -13.60866579	     11.92777240	     11.92777240	     20.15519560	     -1.09055696	     -3.87600698	     -8.45521336	      4.63130148	      0.41876325	    -10.71067265	    -11.78195717	     -5.16173450	     30.34997097	     46.38428029	      0.00000000	      0.00000000	     19.62501395	    -19.08506782	    -14.49333221	     72.73714274	     47.65746178	      0.00000000	      0.00000000
      9.50414286	     -5.28621915	     -2.25031774	     -3.96549668	      0.76027545	      0.91548576	      0.45601982	     27.01824067	     -1.32723633	    -12.18148145	     17.76656214	     17.76656214	     -1.00231789	     -1.33889137	     -3.77793646	     -2.30245430	     -2.51748458	    -13.41247303	     12.25611187	     12.25611187	     20.40981453	     -1.11193044	     -3.75418431	     -8.43195775	      4.83159702	      0.24557640	     -9.89995258	    -11.84768896	     -5.21877681	     30.80779844	     46.37247958	      0.00000000	      0.00000000	     18.74274800	    -18.82250004	    -14.41861110	     71.87092900	     47.63266312	      0.00000000	      0.00000000
      9.51778571	     -5.22933697	     -2.42732747	     -3.68704851	      0.76180670	      0.91539946	      0.45864866	     26.99164784	     -0.99998065	    -11.27905765	     19.02431243	     19.02431243	     -0.43989151	     -3.48956740	     -3.61039514	     -2.52699453	     -3.03259894	    -13.30127430	     13.07677906	     13.07677906	     20.94840643	     -0.96356902	     -3.02111662	     -8.30959966	      5.06656483	     -0.01576316	     -9.07247379	    -11.91207231	     -5.30960955	     31.66285166	     46.33733711	      0.00000000	      0.00000000	     17.93337692	    -18.32984819	    -14.70244405	     70.24622191	     47.62201930	      0.00000000	      0.00000000
      9.53142857	     -5.04287830	     -2.56000458	     -3.38612268	      0.76360521	      0.91587535	      0.46116884	     26.54825150	     -0.84689020	    -11.18232485	     19.82571347	     19.82571347	      0.31439981	     -4.01374611	     -3.91922391	     -3.02319516	     -3.43161343	    -13.04865142	     13.58420695	     13.58420695	     20.93767011	     -1.06254063	     -2.98874834	     -8.39805086	      5.24037202	      0.14002490	     -8.25160080	    -11.94643540	     -5.33791502	     32.04347370	     46.32928000	      0.00000000	      0.00000000	     16.90095910	    -17.54886648	    -14.44711514	     69.62592630	     47.58574341	      0.00000000	      0.00000000
      9.54507143	     -4.87550067	     -2.66837957	     -3.00906195	      0.76498806	      0.91611557	      0.46389961	     26.55050545	     -0.66811397	    -10.57363375	     21.33283391	     21.33283391	      1.13731468	     -5.77630210	     -3.92193276	     -2.86762537	     -3.98646442	    -12.64857228	     15.24879866	     15.24879866	     21.13271744	     -1.59576708	     -2.97137291	     -8.43402183	      5.34045352	     -0.58960229	     -7.07500922	    -12.13938066	     -5.54232809	     33.07324985	     46.30566550	      0.00000000	      0.00000000	     15.91034679	    -17.74347919	    -14.57918327	     67.70555009	     47.55791864	      0.00000000	      0.00000000
